<?xml version="1.0" standalone="no"?>
<!DOCTYPE svg PUBLIC "-//W3C//DTD SVG 20010904//EN"
 "http://www.w3.org/TR/2001/REC-SVG-20010904/DTD/svg10.dtd">
<svg version="1.0" xmlns="http://www.w3.org/2000/svg"
 width="50.000000pt" height="40.000000pt" viewBox="0 0 50.000000 40.000000"
 preserveAspectRatio="xMidYMid meet">
<metadata>
Created by potrace 1.15, written by Peter Selinger 2001-2017
</metadata>
<g transform="translate(0.000000,40.000000) scale(0.100000,-0.100000)"
fill="#000000" stroke="none">
<path d="M102 203 l3 -148 148 -3 147 -3 0 151 0 150 -150 0 -151 0 3 -147z
m266 121 c20 -14 22 -23 22 -121 0 -143 0 -143 -138 -143 -142 0 -142 0 -142
141 0 137 2 139 140 139 70 0 101 -4 118 -16z"/>
<path d="M147 304 c-4 -4 -7 -31 -7 -61 l0 -53 35 0 c31 0 35 3 35 25 0 30 24
43 46 24 10 -8 14 -26 12 -53 -3 -34 -7 -42 -26 -44 -14 -2 -29 4 -38 15 -13
16 -13 16 -8 1 5 -15 0 -18 -26 -18 -27 0 -31 -3 -28 -23 3 -21 7 -22 108 -22
l105 0 3 40 c3 36 2 38 -10 22 -9 -12 -23 -18 -39 -15 -21 3 -24 9 -27 50 -3
44 -1 48 24 54 20 5 31 2 41 -12 13 -17 14 -15 11 26 l-3 45 -101 3 c-55 1
-103 0 -107 -4z"/>
</g>
</svg>
